<svg width="208" height="167" viewBox="0 0 208 167" fill="none" xmlns="http://www.w3.org/2000/svg">
<path d="M47.3934 12.8126L158.139 10.9325L160.464 112.439L49.7187 114.319L47.3934 12.8126Z" fill="white"/>
<path d="M104.686 94.1216C126.117 93.7578 143.163 79.2042 142.76 61.6152C142.357 44.0262 124.657 30.0625 103.227 30.4263C81.7957 30.7901 64.7491 45.3438 65.152 62.9327C65.555 80.5217 83.2548 94.4854 104.686 94.1216Z" fill="white"/>
<path d="M64.2369 31.6525L141.784 30.3373L143.243 94.0941L65.6963 95.4093L64.2369 31.6525Z" fill="white"/>
<path d="M104.686 94.1216C126.117 93.7578 143.163 79.2042 142.76 61.6152C142.357 44.0262 124.657 30.0625 103.227 30.4263C81.7957 30.7901 64.7491 45.3438 65.152 62.9327C65.555 80.5217 83.2548 94.4854 104.686 94.1216Z" fill="white" stroke="black" stroke-width="4" stroke-miterlimit="10"/>
<path d="M64.2369 31.6525L141.784 30.3373L143.243 94.0941L65.6963 95.4093L64.2369 31.6525Z" stroke="black" stroke-width="4" stroke-miterlimit="10"/>
<path d="M104.686 94.1216C126.117 93.7578 143.163 79.2042 142.76 61.6152C142.357 44.0262 124.657 30.0625 103.227 30.4263C81.7957 30.7901 64.7491 45.3438 65.152 62.9327C65.555 80.5217 83.2548 94.4854 104.686 94.1216Z" stroke="black" stroke-width="4" stroke-miterlimit="10"/>
<path d="M64.2369 31.6525L141.784 30.3373L143.243 94.0941L65.6963 95.4093L64.2369 31.6525Z" fill="white"/>
<path d="M104.686 94.1216C126.117 93.7578 143.163 79.2042 142.76 61.6152C142.357 44.0262 124.657 30.0625 103.227 30.4263C81.7957 30.7901 64.7491 45.3438 65.152 62.9327C65.555 80.5217 83.2548 94.4854 104.686 94.1216Z" fill="white" stroke="black" stroke-width="4" stroke-miterlimit="10"/>
<path d="M64.2369 31.6525L141.784 30.3373L143.243 94.0941L65.6963 95.4093L64.2369 31.6525Z" stroke="black" stroke-width="4" stroke-miterlimit="10"/>
<path d="M47.3934 12.8126L158.139 10.9325L160.464 112.439L49.7187 114.319L47.3934 12.8126Z" stroke="black" stroke-width="4" stroke-miterlimit="10"/>
<path d="M104.686 94.1216C126.117 93.7578 143.163 79.2042 142.76 61.6152C142.357 44.0262 124.657 30.0625 103.227 30.4263C81.7957 30.7901 64.7491 45.3438 65.152 62.9327C65.555 80.5217 83.2548 94.4854 104.686 94.1216Z" stroke="black" stroke-width="4" stroke-miterlimit="10"/>
<path d="M92.2556 48.8415L99.7755 48.977L99.6399 62.1283C99.6843 64.2803 99.4066 66.3508 98.8209 68.4259C98.2725 69.9224 97.202 71.1927 95.8389 72.0246C94.1101 73.0463 92.1607 73.5301 90.1127 73.4126C87.6347 73.3629 85.7663 72.9967 84.4217 72.3276C83.127 71.6947 82.0699 70.6278 81.3285 69.3349C80.5589 67.8701 80.1192 66.2652 80.1093 64.5924L87.2881 63.7243C87.243 64.5245 87.3339 65.3474 87.5467 66.1069C87.7173 66.6087 88.0097 67.0472 88.4601 67.3727C88.8103 67.6259 89.2684 67.7298 89.6624 67.7117C90.3785 67.775 91.1601 67.4314 91.5413 66.7985C92.0023 65.8446 92.2631 64.746 92.1799 63.7017L92.2556 48.8415V48.8415ZM103.277 65.2115L110.419 64.9221C110.488 65.8805 110.815 66.7983 111.335 67.5532C112.121 68.575 113.315 69.1355 114.633 69.1039C115.521 69.14 116.417 68.9546 117.12 68.4031C118.067 67.7249 118.286 66.3687 117.601 65.4193C117.487 65.2611 117.373 65.1028 117.222 64.9943C116.658 64.5106 115.427 63.9998 113.409 63.5251C110.102 62.7249 107.813 61.6761 106.42 60.4419C105.077 59.2439 104.265 57.5215 104.363 55.6995C104.373 54.4201 104.792 53.2085 105.461 52.1777C106.288 51.0339 107.414 50.1071 108.748 49.6324C110.669 48.9769 112.647 48.6649 114.695 48.7824C117.839 48.8592 120.193 49.5012 121.795 50.6585C123.396 51.8158 124.358 53.6468 124.645 56.2011L117.589 56.477C117.515 54.6822 115.994 53.2039 114.196 53.2672L113.938 53.3079C113.222 53.2446 112.548 53.439 111.952 53.8414C111.515 54.1307 111.291 54.6506 111.29 55.1795C111.31 55.5729 111.467 55.9888 111.817 56.242C112.181 56.581 113.026 56.8884 114.35 57.1642C117.607 57.9282 119.939 58.7057 121.384 59.4471C122.629 60.0439 123.708 60.9752 124.435 62.1822C125.098 63.2672 125.396 64.5421 125.335 65.7854C125.317 67.2863 124.854 68.7692 124.006 70.0486C123.121 71.3778 121.872 72.3679 120.381 72.9556C118.51 73.6473 116.532 73.9593 114.534 73.8779C110.416 73.7785 107.59 72.9467 106.004 71.3463C104.268 69.6375 103.386 67.4855 103.277 65.2115V65.2115Z" fill="black"/>
</svg>
