<svg width="160" height="60" viewBox="0 0 160 60" fill="none" xmlns="http://www.w3.org/2000/svg">
<g clip-path="url(#clip0_3_60)">
<path d="M82.605 19.5606L90.2171 19.0716C90.3908 20.3085 90.7092 21.229 91.2301 21.8906C92.0695 22.9262 93.2272 23.444 94.7613 23.444C95.8901 23.444 96.7873 23.1851 97.3951 22.6385C97.974 22.2071 98.3213 21.5167 98.3213 20.7975C98.3213 20.1072 98.0029 19.4456 97.453 19.0141C96.8741 18.4963 95.5138 17.9785 93.372 17.5183C89.8698 16.7416 87.3517 15.706 85.8756 14.3828C84.3995 13.1459 83.5601 11.3337 83.618 9.40636C83.618 8.08314 84.0232 6.75992 84.7757 5.66683C85.644 4.4299 86.8307 3.45187 88.2489 2.90533C89.783 2.24372 91.9248 1.89853 94.6165 1.89853C97.9161 1.89853 100.434 2.50261 102.171 3.73953C103.907 4.94768 104.949 6.90375 105.268 9.57895L97.7424 10.0104C97.5398 8.85981 97.1346 8.02561 96.4689 7.47906C95.8032 6.93251 94.9349 6.67362 93.8061 6.67362C92.8799 6.67362 92.1853 6.87498 91.7222 7.24893C91.288 7.59412 90.9986 8.1119 91.0275 8.68722C91.0275 9.1187 91.2591 9.52142 91.6064 9.78031C91.9827 10.1255 92.8799 10.4419 94.2982 10.7296C97.8003 11.4775 100.289 12.2254 101.823 13.0021C103.357 13.7787 104.457 14.728 105.123 15.8499C105.818 17.0005 106.165 18.3237 106.136 19.6757C106.136 21.2866 105.673 22.8974 104.747 24.2494C103.792 25.6589 102.46 26.752 100.897 27.4136C99.2475 28.1328 97.1636 28.5067 94.6744 28.5067C90.275 28.5067 87.2359 27.6725 85.5283 25.9754C83.8206 24.2782 82.8076 22.1495 82.605 19.5606ZM1.82345 28.0752V2.35878H15.1664C17.6266 2.35878 19.5369 2.56014 20.8394 2.99162C22.1129 3.39434 23.2417 4.22854 23.9942 5.3504C24.8336 6.58732 25.2388 8.02561 25.2099 9.52142C25.2967 12.0528 23.9942 14.4691 21.7656 15.7348C20.8973 16.2238 19.9421 16.569 18.958 16.7416C19.6816 16.9429 20.4052 17.2881 21.042 17.6909C21.534 18.0936 21.9392 18.5538 22.3155 19.0428C22.7496 19.5319 23.1259 20.0784 23.4443 20.6537L27.3227 28.104H18.2345L13.9508 20.1935C13.4009 19.1867 12.9378 18.5251 12.5036 18.2086C11.9248 17.8059 11.2301 17.6046 10.5355 17.6046H9.84081V28.0465H1.82345V28.0752ZM9.84081 12.7719H13.2272C13.9508 12.7144 14.6454 12.5993 15.3401 12.4267C15.8611 12.3404 16.3242 12.0528 16.6426 11.6213C17.424 10.5857 17.3083 9.1187 16.3531 8.22697C15.8321 7.79548 14.8191 7.56536 13.3719 7.56536H9.84081V12.7719ZM0 50.1097L7.61216 49.6207C7.78582 50.8576 8.1042 51.7781 8.62518 52.4397C9.4356 53.4753 10.6223 54.0218 12.1563 54.0218C13.2851 54.0218 14.1823 53.7629 14.7902 53.2164C15.369 52.7561 15.7164 52.0945 15.7164 51.3754C15.7164 50.685 15.398 50.0234 14.8481 49.5919C14.2692 49.0741 12.9088 48.5564 10.7381 48.0961C7.23589 47.3194 4.7178 46.2839 3.24168 44.9607C1.76556 43.7237 0.926194 41.9115 0.984081 39.9842C0.984081 38.661 1.38929 37.3378 2.14182 36.2447C3.01013 35.0078 4.19682 34.0297 5.61505 33.4832C7.14906 32.8216 9.29089 32.4764 11.9826 32.4764C15.2822 32.4764 17.8003 33.0805 19.5369 34.3174C21.2735 35.5543 22.2865 37.4816 22.6049 40.1568L15.0796 40.5883C14.877 39.4377 14.4718 38.6035 13.8061 38.0569C13.1693 37.5104 12.2721 37.2515 11.1433 37.2802C10.2171 37.2802 9.52243 37.4816 9.05934 37.8843C8.59624 38.2295 8.33575 38.7473 8.36469 39.3226C8.36469 39.7541 8.59624 40.1568 8.94356 40.4157C9.31983 40.7609 10.2171 41.0773 11.6353 41.365C15.1375 42.1129 17.6266 42.8608 19.1606 43.6374C20.6947 44.4141 21.7945 45.3634 22.4602 46.4852C23.1549 47.6359 23.5022 48.9591 23.5022 50.2823C23.5022 51.8932 23.0101 53.4753 22.1129 54.8273C21.1578 56.2368 19.8263 57.3299 18.2634 57.9915C16.6136 58.7106 14.5297 59.0846 12.0405 59.0846C7.6411 59.0846 4.60203 58.2504 2.89436 56.5532C1.18669 54.8273 0.231549 52.6986 0 50.1097H0Z" fill="black"/>
<path d="M38.4949 48.0961L45.4993 50.196C45.123 51.9507 44.3415 53.6191 43.2706 55.0862C42.2866 56.3806 40.9841 57.3874 39.508 58.049C38.0029 58.7106 36.0926 59.0558 33.7771 59.0558C30.9696 59.0558 28.6541 58.6531 26.8886 57.8477C25.0941 57.0422 23.5601 55.6039 22.2576 53.5616C20.9551 51.5192 20.3184 48.9015 20.3184 45.7086C20.3184 41.4512 21.4472 38.172 23.7337 35.8995C26.0203 33.627 29.233 32.4764 33.4009 32.4764C36.6715 32.4764 39.2185 33.138 41.0999 34.4324C42.9523 35.7557 44.3415 37.7693 45.2677 40.4732L38.2055 42.0266C38.0319 41.4225 37.7714 40.8184 37.424 40.3006C36.9899 39.6965 36.44 39.2363 35.7743 38.8911C35.1086 38.5459 34.356 38.4021 33.6035 38.4021C31.78 38.4021 30.3907 39.1212 29.4356 40.5883C28.712 41.6526 28.3358 43.3498 28.3358 45.651C28.3358 48.4988 28.7699 50.4549 29.6382 51.5192C30.5065 52.5835 31.7222 53.1013 33.3141 53.1013C34.8481 53.1013 36.0058 52.6698 36.7873 51.8356C37.5688 50.9439 38.1476 49.707 38.4949 48.0961ZM54.8481 32.9079H62.8365V41.9115H71.5774V32.9079H79.6238V58.6243H71.5774V48.2112H62.8365V58.6243H54.8481V32.9079Z" fill="black"/>
<path d="M78.5239 45.7661C78.5239 41.5663 79.7106 38.287 82.055 35.957C84.3994 33.627 87.699 32.4476 91.8958 32.4476C96.2084 32.4476 99.5079 33.5983 101.852 35.8995C104.197 38.2008 105.355 41.4225 105.355 45.5647C105.355 48.5851 104.834 51.0302 103.821 52.9575C102.836 54.856 101.302 56.4094 99.4211 57.4449C97.4819 58.5093 95.0796 59.0558 92.2142 59.0558C89.2909 59.0558 86.8886 58.5956 84.9783 57.6751C83.0101 56.697 81.3893 55.1725 80.3184 53.3027C79.1317 51.2891 78.5239 48.7865 78.5239 45.7661ZM86.5123 45.7949C86.5123 48.3838 87.0043 50.2535 87.9595 51.4042C88.9146 52.526 90.246 53.1013 91.9247 53.1013C93.6324 53.1013 94.9638 52.5548 95.9189 51.4329C96.8741 50.3111 97.3372 48.3262 97.3372 45.4497C97.3372 43.0334 96.8451 41.2499 95.8611 40.1568C94.877 39.035 93.5456 38.4884 91.8668 38.4884C90.3907 38.4309 88.9725 39.0637 87.9884 40.1856C87.0043 41.3074 86.5123 43.1772 86.5123 45.7949V45.7949ZM113.546 45.7661C113.546 41.5663 114.732 38.287 117.077 35.957C119.421 33.627 122.721 32.4476 126.918 32.4476C131.23 32.4476 134.559 33.5983 136.874 35.8995C139.19 38.2008 140.376 41.4225 140.376 45.5647C140.376 48.5851 139.855 51.0302 138.842 52.9575C137.858 54.856 136.324 56.4094 134.443 57.4449C132.504 58.5093 130.101 59.0558 127.236 59.0558C124.313 59.0558 121.91 58.5956 120 57.6751C118.032 56.697 116.411 55.1725 115.34 53.3027C114.153 51.2891 113.546 48.7865 113.546 45.7661V45.7661ZM121.534 45.7949C121.534 48.3838 122.026 50.2535 122.981 51.4042C123.936 52.526 125.268 53.1013 126.946 53.1013C128.654 53.1013 129.986 52.5548 130.941 51.4329C131.896 50.3111 132.359 48.3262 132.359 45.4497C132.359 43.0334 131.867 41.2499 130.883 40.1568C129.899 39.035 128.567 38.4884 126.889 38.4884C125.412 38.4309 123.965 39.0637 123.01 40.1856C122.026 41.3074 121.534 43.1772 121.534 45.7949V45.7949Z" fill="black"/>
<path d="M139.537 32.9079H147.525V52.2959H160V58.6243H139.508V32.9079H139.537Z" fill="black"/>
<path d="M130.732 31.4238C138.775 25.4002 141.255 15.1894 136.271 8.61723C131.288 2.04505 120.728 1.60028 112.686 7.62379C104.643 13.6473 102.163 23.8581 107.146 30.4303C112.13 37.0025 122.689 37.4473 130.732 31.4238Z" fill="white"/>
<path d="M86.6353 16.2643L128.196 -14.8627L156.955 23.0656L115.394 54.1926L86.6353 16.2643Z" fill="white"/>
<path d="M130.732 31.4238C138.775 25.4002 141.255 15.1894 136.271 8.61723C131.288 2.04505 120.728 1.60028 112.686 7.62379C104.643 13.6473 102.163 23.8581 107.146 30.4303C112.13 37.0025 122.689 37.4473 130.732 31.4238Z" fill="white"/>
<path d="M98.2086 18.7968L127.311 -2.99843L145.374 20.8248L116.272 42.6201L98.2086 18.7968Z" fill="white"/>
<path d="M130.732 31.4237C138.775 25.4002 141.255 15.1894 136.271 8.6172C131.288 2.04502 120.728 1.60025 112.686 7.62376C104.643 13.6473 102.163 23.8581 107.146 30.4303C112.13 37.0025 122.689 37.4472 130.732 31.4237Z" fill="white" stroke="black" stroke-width="4" stroke-miterlimit="10"/>
<path d="M98.2086 18.7968L127.311 -2.99843L145.374 20.8248L116.272 42.6201L98.2086 18.7968Z" stroke="black" stroke-width="4" stroke-miterlimit="10"/>
<path d="M130.732 31.4238C138.775 25.4002 141.255 15.1894 136.271 8.61723C131.288 2.04505 120.728 1.60028 112.686 7.62379C104.643 13.6473 102.163 23.8581 107.146 30.4303C112.13 37.0025 122.689 37.4473 130.732 31.4238Z" stroke="black" stroke-width="4" stroke-miterlimit="10"/>
<path d="M98.2086 18.7968L127.311 -2.99843L145.374 20.8248L116.272 42.6201L98.2086 18.7968Z" fill="white"/>
<path d="M130.732 31.4237C138.775 25.4002 141.255 15.1894 136.271 8.6172C131.288 2.04502 120.728 1.60025 112.686 7.62376C104.643 13.6473 102.163 23.8581 107.146 30.4303C112.13 37.0025 122.689 37.4472 130.732 31.4237Z" fill="white" stroke="black" stroke-width="4" stroke-miterlimit="10"/>
<path d="M98.2086 18.7968L127.311 -2.99843L145.374 20.8248L116.272 42.6201L98.2086 18.7968Z" stroke="black" stroke-width="4" stroke-miterlimit="10"/>
<path d="M86.6353 16.2643L128.196 -14.8627L156.955 23.0656L115.394 54.1926L86.6353 16.2643Z" stroke="black" stroke-width="4" stroke-miterlimit="10"/>
<path d="M130.732 31.4238C138.775 25.4002 141.255 15.1894 136.271 8.61723C131.288 2.04505 120.728 1.60028 112.686 7.62379C104.643 13.6473 102.163 23.8581 107.146 30.4303C112.13 37.0025 122.689 37.4473 130.732 31.4238Z" stroke="black" stroke-width="4" stroke-miterlimit="10"/>
<path d="M113.575 17.6333L116.469 15.6197L120.029 20.6537C120.637 21.4591 121.1 22.3221 121.447 23.2714C121.65 23.9905 121.592 24.7672 121.302 25.4576C120.926 26.3205 120.318 27.0397 119.508 27.5575C118.553 28.2191 117.742 28.593 117.048 28.7081C116.382 28.8231 115.687 28.7081 115.051 28.4204C114.356 28.0752 113.748 27.5862 113.285 26.9534L115.774 24.6521C115.977 24.9685 116.237 25.2562 116.527 25.4863C116.729 25.6302 116.961 25.7165 117.221 25.7165C117.424 25.7165 117.627 25.6302 117.771 25.5151C118.061 25.3425 118.263 24.9973 118.234 24.6521C118.148 24.1631 117.945 23.6741 117.627 23.3001L113.575 17.6333V17.6333ZM122.258 20.8263L124.891 18.7552C125.181 19.1004 125.557 19.3593 125.962 19.5031C126.541 19.6757 127.149 19.5606 127.641 19.1867C127.988 18.9565 128.278 18.6401 128.394 18.2374C128.567 17.7196 128.278 17.1443 127.757 16.9717C127.67 16.9429 127.583 16.9142 127.496 16.9142C127.149 16.8854 126.541 17.0292 125.644 17.4032C124.168 18.0073 123.01 18.2374 122.142 18.1511C121.302 18.0648 120.521 17.6333 120.058 16.9142C119.711 16.4252 119.537 15.8498 119.508 15.2745C119.508 14.6129 119.682 13.9513 120.058 13.4048C120.608 12.6281 121.274 11.9665 122.084 11.4487C123.3 10.6145 124.37 10.2118 125.297 10.2118C126.223 10.2118 127.091 10.6433 127.902 11.535L125.297 13.5774C124.776 12.9158 123.792 12.7719 123.126 13.2897L123.039 13.376C122.75 13.5486 122.547 13.8075 122.431 14.1239C122.344 14.354 122.402 14.6129 122.547 14.8143C122.663 14.9581 122.836 15.0732 123.039 15.0732C123.271 15.1019 123.676 14.9869 124.255 14.728C125.702 14.1239 126.802 13.7787 127.554 13.6637C128.191 13.5486 128.857 13.6061 129.465 13.865C130.014 14.0951 130.478 14.4979 130.796 14.9869C131.201 15.5622 131.433 16.2526 131.462 16.9717C131.491 17.7196 131.288 18.4388 130.883 19.0716C130.362 19.8483 129.696 20.5099 128.915 21.0277C127.323 22.1208 126.02 22.581 124.978 22.4084C123.849 22.2358 122.923 21.6605 122.258 20.8263V20.8263Z" fill="black"/>
</g>
<defs>
<clipPath id="clip0_3_60">
<rect width="160" height="59.0558" fill="white"/>
</clipPath>
</defs>
</svg>
